<svg aria-hidden="true" style="width:0;height:0;position:absolute;overflow:hidden" xmlns="http://www.w3.org/2000/svg"><defs><symbol id="icon-heart" viewBox="0 0 32 32"><path opacity=".7" stroke="#f8f8f8" style="stroke:var(--color1,#f8f8f8)" stroke-linejoin="round" stroke-linecap="round" stroke-width="2.909" d="M15.991 6.848C13.325 3.731 8.88 2.893 5.54 5.747s-3.81 7.625-1.187 11c2.181 2.806 8.781 8.725 10.944 10.641.242.214.363.321.504.364a.668.668 0 0 0 .381 0c.141-.042.262-.149.504-.364 2.163-1.916 8.763-7.834 10.944-10.641 2.623-3.375 2.21-8.177-1.187-11.001s-7.785-2.015-10.451 1.101z"/></symbol><symbol id="icon-menu-burger" viewBox="0 0 32 32"><path fill="none" stroke-linejoin="round" stroke-linecap="round" stroke-width="2" stroke="#000" d="M28 13.333H4M28 8H4m24 10.667H4M28 24H4"/></symbol><symbol id="icon-cart" viewBox="0 0 32 32"><path stroke-linejoin="round" stroke-linecap="round" stroke-width="2.667" d="M12 29.333a1.333 1.333 0 0 0 0-2.666 1.333 1.333 0 0 0 0 2.666zm14.667 0a1.333 1.333 0 0 0 0-2.666 1.333 1.333 0 0 0 0 2.666z"/><path fill="none" stroke-linejoin="round" stroke-linecap="round" stroke-width="2.4" d="M1.333 1.333h5.333l3.573 17.853a2.671 2.671 0 0 0 2.616 2.147l.054-.001h-.003H25.917a2.668 2.668 0 0 0 2.613-2.13l.003-.017 2.133-11.187H7.999"/></symbol><symbol id="icon-fi-rr-angle-small-right" viewBox="0 0 32 32"><path d="M17.867 16.947a1.328 1.328 0 0 0 .001-1.894l-6.12-6.107a1.333 1.333 0 0 1 .94-2.281c.367 0 .699.148.94.388l6.12 6.12c.723.724 1.17 1.723 1.17 2.827s-.447 2.103-1.17 2.827l-6.12 6.12a1.334 1.334 0 1 1-1.88-1.894l6.12-6.107z"/></symbol><symbol id="icon-fi-rr-angle-small-left" viewBox="0 0 32 32"><path fill="#f8f8f8" style="fill:var(--color1,#f8f8f8)" opacity=".5" d="M14.133 16.947c-.244-.241-.395-.576-.395-.947s.151-.705.395-.947l6.12-6.107a1.333 1.333 0 0 0-.94-2.281c-.367 0-.699.148-.94.388l-6.12 6.12c-.723.724-1.17 1.723-1.17 2.827s.447 2.103 1.17 2.827l6.12 6.12a1.334 1.334 0 1 0 1.88-1.894l-6.12-6.107z"/></symbol><symbol id="icon-search" viewBox="0 0 32 32"><path fill="var(--black-rgba)" d="M28.948 27.054 24 22.147a11.926 11.926 0 0 0 2.639-7.508c0-6.627-5.373-12-12-12s-12 5.373-12 12 5.373 12 12 12c2.852 0 5.472-.995 7.531-2.657l-.023.018 4.907 4.907a1.333 1.333 0 0 0 1.894 0 1.33 1.33 0 0 0-.001-1.853zM14.667 24a9.333 9.333 0 1 1 0-18.666 9.333 9.333 0 1 1 0 18.666z"/></symbol><symbol id="icon-search-close" viewBox="0 0 32 32"><path stroke="#9BB537" stroke-linejoin="round" stroke-linecap="round" stroke-width="3.556" d="M24 8 8 24M8 8l16 16"/></symbol><symbol id="icon-modal-close" viewBox="0 0 32 32"><path fill="none" stroke-linejoin="round" stroke-linecap="round" stroke-width="2.667" stroke="#000" d="M24 8 8 24M8 8l16 16"/></symbol><symbol id="icon-star" viewBox="0 0 32 32"><path d="M15.411 1.117a.667.667 0 0 1 1.177-.004l.002.004 4.148 7.861c.096.18.268.31.472.346l.004.001 8.759 1.515a.667.667 0 0 1 .363 1.122l-6.195 6.375a.667.667 0 0 0-.181.563v-.004l1.265 8.797a.667.667 0 0 1-.959.692l.004.002-7.976-3.921a.66.66 0 0 0-.594.001l.004-.002-7.976 3.921a.667.667 0 0 1-.955-.697v.004l1.267-8.797a.665.665 0 0 0-.183-.561l-6.195-6.373a.665.665 0 0 1 .36-1.122l.004-.001 8.759-1.515a.667.667 0 0 0 .474-.343l.002-.004 4.147-7.861z"/></symbol><symbol id="icon-chefs-hat" viewBox="0 0 37 32"><path fill="#9bb537" style="fill:var(--color3,#9bb537)" d="M7.325 12.723h23.133v17.735H7.325V12.723z"/><path fill="#9bb537" style="fill:var(--color3,#9bb537)" d="M16.578 11.373a8.289 8.289 0 1 1-16.578 0 8.289 8.289 0 1 1 16.578 0z"/><path fill="#9bb537" style="fill:var(--color3,#9bb537)" d="M26.988 8.289a8.289 8.289 0 1 1-16.578 0 8.289 8.289 0 1 1 16.578 0z"/><path fill="#9bb537" style="fill:var(--color3,#9bb537)" d="M37.398 11.373a8.289 8.289 0 1 1-16.578 0 8.289 8.289 0 1 1 16.578 0z"/><path fill="#f8f8f8" style="fill:var(--color1,#f8f8f8)" d="M7.325 29.301h23.133v2.036c0 .366-.324.663-.723.663H8.048c-.399 0-.723-.297-.723-.663v-2.036zm6.94-18.941c0-.611.432-1.107.964-1.107s.964.495.964 1.107v5.112c0 .611-.432 1.107-.964 1.107s-.964-.495-.964-1.107V10.36zm3.084 0c0-.611.604-1.107 1.349-1.107s1.349.495 1.349 1.107v5.112c0 .611-.604 1.107-1.349 1.107s-1.349-.495-1.349-1.107V10.36zm3.856 0c0-.611.432-1.107.964-1.107s.964.495.964 1.107v5.112c0 .611-.432 1.107-.964 1.107s-.964-.495-.964-1.107V10.36z"/><path fill="#050505" style="fill:var(--color4,#050505)" d="M28.184 3.131c.262-.029.566-.045.874-.045h.005a8.332 8.332 0 0 1 7.938 5.746 8.333 8.333 0 0 1-8.816-5.7z"/></symbol><symbol id="icon-circle-up" viewBox="0 0 32 32"><path d="M0 16c0 8.837 7.163 16 16 16s16-7.163 16-16S24.837 0 16 0 0 7.163 0 16zm29 0c0 7.18-5.82 13-13 13S3 23.18 3 16 8.82 3 16 3s13 5.82 13 13z"/><path d="m22.086 20.914 2.829-2.829-8.914-8.914-8.914 8.914 2.828 2.828 6.086-6.086z"/></symbol><symbol id="cart" viewBox="0 0 36 32"><path stroke-width="2.783" d="M15.304 29.217a1.391 1.391 0 1 1-2.783 0 1.391 1.391 0 0 1 2.783 0zM30.609 29.217a1.391 1.391 0 1 1-2.783 0 1.391 1.391 0 0 1 2.783 0z"/><path stroke-width="2.783" stroke-linecap="round" stroke-linejoin="round" d="M2.783 1.391h4.425c.663 0 1.234.468 1.364 1.118l1.072 5.358m-.001.001 2.655 13.274c.13.65.701 1.118 1.364 1.118H29.46c.667 0 1.239-.473 1.366-1.127l2.245-11.61a1.391 1.391 0 0 0-1.366-1.655H9.643z"/></symbol><symbol id="burger" viewBox="0 0 31 32"><path fill="none" stroke-width="2.424" stroke-linecap="round" d="M3.879 8.727h23.273M3.879 13.576h23.273M3.879 18.424h23.273M3.879 23.273h23.273"/></symbol><symbol id="cross" viewBox="0 0 32 32"><path fill="none" stroke="#f8f8f8" stroke-width="2" stroke-linecap="round" stroke-linejoin="round" style="stroke:var(--color1,#f8f8f8)" d="M24 8 8 24M8 8l16 16"/></symbol><symbol id="cross-2" viewBox="0 0 32 32"><path stroke-width="2.88" stroke-linecap="round" stroke-linejoin="round" d="M24 8 8 24M8 8l16 16"/></symbol><symbol id="star-ico" viewBox="0 0 32 32"><path d="M13.826 3.262c.684-2.106 3.663-2.106 4.348 0l1.932 5.945a2.285 2.285 0 0 0 2.174 1.579h6.251c2.214 0 3.135 2.833 1.344 4.135l-5.057 3.674a2.286 2.286 0 0 0-.83 2.556l1.931 5.945c.684 2.106-1.726 3.857-3.517 2.555l-5.057-3.674a2.286 2.286 0 0 0-2.687 0l-5.057 3.674c-1.791 1.302-4.202-.45-3.517-2.555l1.932-5.945a2.287 2.287 0 0 0-.83-2.556l-5.057-3.674c-1.791-1.302-.871-4.135 1.344-4.135h6.251c.99 0 1.868-.638 2.174-1.579l1.932-5.945z"/></symbol><symbol id="icon-chevron" viewBox="0 0 32 32"><path stroke-linejoin="round" stroke-linecap="round" stroke-width="3.556" d="m8 12 8 8 8-8"/></symbol><symbol id="icon-search" viewBox="0 0 32 32"><path d="M28.947 27.054 24 22.147a11.999 11.999 0 0 0-1.353-16.445 12 12 0 1 0-.5 18.298l4.907 4.907a1.334 1.334 0 0 0 1.894 0 1.336 1.336 0 0 0 0-1.854zm-14.28-3.053a9.33 9.33 0 0 1-8.623-5.762A9.339 9.339 0 0 1 8.067 8.067a9.331 9.331 0 0 1 10.172-2.023 9.336 9.336 0 0 1 5.762 8.623 9.333 9.333 0 0 1-9.334 9.334z"/></symbol></defs></svg>