<svg aria-hidden="true" style="position: absolute; width: 0; height: 0; overflow: hidden;" version="1.1" xmlns="http://www.w3.org/2000/svg" xmlns:xlink="http://www.w3.org/1999/xlink">
<defs>
<symbol id="icon-heart" viewBox="0 0 32 32">
<path  opacity="0.7" stroke="#f8f8f8" style="stroke: var(--color1, #f8f8f8)" stroke-linejoin="round" stroke-linecap="round" stroke-miterlimit="4" stroke-width="2.9091" d="M15.991 6.848c-2.666-3.117-7.111-3.955-10.451-1.101s-3.81 7.625-1.187 11c2.181 2.806 8.781 8.725 10.944 10.641 0.242 0.214 0.363 0.321 0.504 0.364 0.123 0.037 0.258 0.037 0.381 0 0.141-0.042 0.262-0.149 0.504-0.364 2.163-1.916 8.763-7.834 10.944-10.641 2.623-3.375 2.21-8.177-1.187-11.001s-7.785-2.015-10.451 1.101z"></path>
</symbol>
<symbol id="icon-menu-burger" viewBox="0 0 32 32">
<path fill="none" stroke-linejoin="round" stroke-linecap="round" stroke-miterlimit="4" stroke-width="2" stroke="#000" d="M28 13.333h-24M28 8h-24M28 18.667h-24M28 24h-24"></path>
</symbol>
<symbol id="icon-cart" viewBox="0 0 32 32">
<path stroke-linejoin="round" stroke-linecap="round" stroke-miterlimit="4" stroke-width="2.6667"  d="M12 29.333c0.736 0 1.333-0.597 1.333-1.333s-0.597-1.333-1.333-1.333v0c-0.736 0-1.333 0.597-1.333 1.333s0.597 1.333 1.333 1.333v0zM26.667 29.333c0.736 0 1.333-0.597 1.333-1.333s-0.597-1.333-1.333-1.333v0c-0.736 0-1.333 0.597-1.333 1.333s0.597 1.333 1.333 1.333v0z"></path>
<path fill="none" stroke-linejoin="round" stroke-linecap="round" stroke-miterlimit="4" stroke-width="2.4" d="M1.333 1.333h5.333l3.573 17.853c0.251 1.233 1.327 2.147 2.616 2.147 0.018 0 0.036-0 0.054-0.001l-0.003 0h12.96c0.015 0 0.033 0 0.051 0 1.289 0 2.364-0.914 2.613-2.13l0.003-0.017 2.133-11.187h-22.667"></path>
</symbol>
<symbol id="icon-fi-rr-angle-small-right" viewBox="0 0 32 32">
<path d="M17.867 16.947c0.244-0.241 0.396-0.576 0.396-0.947s-0.151-0.705-0.395-0.947l-0-0-6.12-6.107c-0.243-0.242-0.394-0.577-0.394-0.947 0-0.737 0.597-1.334 1.334-1.334 0.367 0 0.699 0.148 0.94 0.388l6.12 6.12c0.723 0.724 1.17 1.723 1.17 2.827s-0.447 2.103-1.17 2.827l-6.12 6.12c-0.241 0.239-0.573 0.387-0.94 0.387-0.737 0-1.334-0.597-1.334-1.334 0-0.37 0.151-0.705 0.394-0.947l0-0 6.12-6.107z"></path>
</symbol>
<symbol id="icon-fi-rr-angle-small-left" viewBox="0 0 32 32">
<path fill="#f8f8f8" style="fill: var(--color1, #f8f8f8)" opacity="0.5" d="M14.133 16.947c-0.244-0.241-0.395-0.576-0.395-0.947s0.151-0.705 0.395-0.947l0-0 6.12-6.107c0.243-0.242 0.394-0.577 0.394-0.947 0-0.737-0.597-1.334-1.334-1.334-0.367 0-0.699 0.148-0.94 0.388l-6.12 6.12c-0.723 0.724-1.17 1.723-1.17 2.827s0.447 2.103 1.17 2.827l6.12 6.12c0.241 0.239 0.573 0.387 0.94 0.387 0.737 0 1.334-0.597 1.334-1.334 0-0.37-0.151-0.705-0.394-0.947l-0-0-6.12-6.107z"></path>
</symbol>
<symbol id="icon-search" viewBox="0 0 32 32">
<path fill="var(--black-rgba)" d="M28.948 27.054l-4.948-4.907c1.644-2.036 2.639-4.656 2.639-7.508 0-6.627-5.373-12-12-12s-12 5.373-12 12c0 6.627 5.373 12 12 12 2.852 0 5.472-0.995 7.531-2.657l-0.023 0.018 4.907 4.907c0.242 0.244 0.577 0.394 0.947 0.394s0.705-0.151 0.947-0.394l0-0c0.232-0.24 0.374-0.566 0.374-0.926s-0.143-0.687-0.375-0.927l0 0zM14.667 24c-5.155 0-9.333-4.179-9.333-9.333s4.179-9.333 9.333-9.333v0c5.155 0 9.333 4.179 9.333 9.333s-4.179 9.333-9.333 9.333v0z"></path>
</symbol>
<symbol id="icon-search-close" viewBox="0 0 32 32">
<path stroke='#9BB537' stroke-linejoin="round" stroke-linecap="round" stroke-miterlimit="4" stroke-width="3.5556"  d="M24 8l-16 16M8 8l16 16"></path>
</symbol>
<symbol id="icon-modal-close" viewBox="0 0 32 32">
<path fill="none" stroke-linejoin="round" stroke-linecap="round" stroke-miterlimit="4" stroke-width="2.6667" stroke="#000" d="M24 8l-16 16M8 8l16 16"></path>
</symbol>
<symbol id="icon-star" viewBox="0 0 32 32">
<path d="M15.411 1.117c0.114-0.213 0.335-0.355 0.589-0.355s0.475 0.142 0.588 0.351l0.002 0.004 4.148 7.861c0.096 0.18 0.268 0.31 0.472 0.346l0.004 0.001 8.759 1.515c0.316 0.056 0.552 0.329 0.552 0.657 0 0.181-0.072 0.345-0.189 0.465l0-0-6.195 6.375c-0.116 0.12-0.188 0.284-0.188 0.464 0 0.034 0.003 0.067 0.007 0.099l-0-0.004 1.265 8.797c0.004 0.029 0.007 0.062 0.007 0.095 0 0.368-0.298 0.667-0.667 0.667-0.107 0-0.209-0.025-0.299-0.070l0.004 0.002-7.976-3.921c-0.086-0.043-0.187-0.069-0.295-0.069s-0.209 0.025-0.299 0.070l0.004-0.002-7.976 3.921c-0.086 0.043-0.187 0.069-0.295 0.069-0.368 0-0.667-0.298-0.667-0.667 0-0.034 0.003-0.067 0.007-0.099l-0 0.004 1.267-8.797c0.004-0.028 0.007-0.061 0.007-0.095 0-0.181-0.072-0.345-0.19-0.466l-6.195-6.373c-0.117-0.12-0.19-0.284-0.19-0.466 0-0.328 0.237-0.601 0.55-0.656l0.004-0.001 8.759-1.515c0.208-0.037 0.38-0.166 0.474-0.343l0.002-0.004 4.147-7.861z"></path>
</symbol>
<symbol id="icon-chefs-hat" viewBox="0 0 37 32">
<path fill="#9bb537" style="fill: var(--color3, #9bb537)" d="M7.325 12.723h23.133v17.735h-23.133v-17.735z"></path>
<path fill="#9bb537" style="fill: var(--color3, #9bb537)" d="M16.578 11.373c0 4.578-3.711 8.289-8.289 8.289s-8.289-3.711-8.289-8.289 3.711-8.289 8.289-8.289 8.289 3.711 8.289 8.289z"></path>
<path fill="#9bb537" style="fill: var(--color3, #9bb537)" d="M26.988 8.289c0 4.578-3.711 8.289-8.289 8.289s-8.289-3.711-8.289-8.289 3.711-8.289 8.289-8.289 8.289 3.711 8.289 8.289z"></path>
<path fill="#9bb537" style="fill: var(--color3, #9bb537)" d="M37.398 11.373c0 4.578-3.711 8.289-8.289 8.289s-8.289-3.711-8.289-8.289 3.711-8.289 8.289-8.289 8.289 3.711 8.289 8.289z"></path>
<path fill="#f8f8f8" style="fill: var(--color1, #f8f8f8)" d="M7.325 29.301h23.133v2.036c0 0.366-0.324 0.663-0.723 0.663h-21.687c-0.399 0-0.723-0.297-0.723-0.663v-2.036zM14.265 10.36c0-0.611 0.432-1.107 0.964-1.107s0.964 0.495 0.964 1.107v5.112c0 0.611-0.432 1.107-0.964 1.107s-0.964-0.495-0.964-1.107v-5.112zM17.349 10.36c0-0.611 0.604-1.107 1.349-1.107s1.349 0.495 1.349 1.107v5.112c0 0.611-0.604 1.107-1.349 1.107s-1.349-0.495-1.349-1.107v-5.112zM21.205 10.36c0-0.611 0.432-1.107 0.964-1.107s0.964 0.495 0.964 1.107v5.112c0 0.611-0.432 1.107-0.964 1.107s-0.964-0.495-0.964-1.107v-5.112z"></path>
<path fill="#050505" style="fill: var(--color4, #050505)" d="M28.184 3.131c0.262-0.029 0.566-0.045 0.874-0.045 0.002 0 0.003 0 0.005 0h-0c3.714 0 6.861 2.412 7.938 5.746-0.289 0.030-0.582 0.046-0.878 0.046-3.714 0-6.861-2.413-7.938-5.746z"></path>
</symbol>
<symbol id="icon-circle-up" viewBox="0 0 32 32">
      <path d="M0 16c0 8.837 7.163 16 16 16s16-7.163 16-16S24.837 0 16 0 0 7.163 0 16zm29 0c0 7.18-5.82 13-13 13S3 23.18 3 16 8.82 3 16 3s13 5.82 13 13z"/>
      <path d="m22.086 20.914 2.829-2.829-8.914-8.914-8.914 8.914 2.828 2.828 6.086-6.086z"/>
</symbol>

<symbol id="cart" viewBox="0 0 36 32">
<path stroke-width="2.7826" stroke-miterlimit="4" stroke-linecap="butt" stroke-linejoin="miter" d="M15.304 29.217c0 0.768-0.623 1.391-1.391 1.391s-1.391-0.623-1.391-1.391c0-0.768 0.623-1.391 1.391-1.391s1.391 0.623 1.391 1.391z"></path>
<path stroke-width="2.7826" stroke-miterlimit="4" stroke-linecap="butt" stroke-linejoin="miter" d="M30.609 29.217c0 0.768-0.623 1.391-1.391 1.391s-1.391-0.623-1.391-1.391c0-0.768 0.623-1.391 1.391-1.391s1.391 0.623 1.391 1.391z"></path>
<path stroke-width="2.7826" stroke-miterlimit="4" stroke-linecap="round" stroke-linejoin="round" d="M2.783 1.391c0 0 2.376 0 4.425 0 0.663 0 1.234 0.468 1.364 1.118l1.072 5.358M9.643 7.868l2.655 13.274c0.13 0.65 0.701 1.118 1.364 1.118h15.798c0.667 0 1.239-0.473 1.366-1.127l2.245-11.61c0.166-0.858-0.492-1.655-1.366-1.655h-22.062z"></path>
</symbol>
<symbol id="burger" viewBox="0 0 31 32">
<path fill="none" stroke="" stroke-width="2.4242" stroke-miterlimit="4" stroke-linecap="round" stroke-linejoin="miter" d="M3.879 8.727h23.273"></path>
<path fill="none" stroke="" stroke-width="2.4242" stroke-miterlimit="4" stroke-linecap="round" stroke-linejoin="miter" d="M3.879 13.576h23.273"></path>
<path fill="none" stroke="" stroke-width="2.4242" stroke-miterlimit="4" stroke-linecap="round" stroke-linejoin="miter" d="M3.879 18.424h23.273"></path>
<path fill="none" stroke="" stroke-width="2.4242" stroke-miterlimit="4" stroke-linecap="round" stroke-linejoin="miter" d="M3.879 23.273h23.273"></path>
</symbol>
<symbol id="cross" viewBox="0 0 32 32">
<path fill="none" stroke="#f8f8f8" stroke-width="2" stroke-miterlimit="4" stroke-linecap="round" stroke-linejoin="round" style="stroke: var(--color1, #f8f8f8)" d="M24 8l-16 16"></path>
<path fill="none" stroke="#f8f8f8" stroke-width="2" stroke-miterlimit="4" stroke-linecap="round" stroke-linejoin="round" style="stroke: var(--color1, #f8f8f8)" d="M8 8l16 16"></path>
</symbol>
<symbol id="cross-2" viewBox="0 0 32 32">
<path stroke-width="2.88" stroke-miterlimit="4" stroke-linecap="round" stroke-linejoin="round" d="M24 8l-16 16"></path>
<path stroke-width="2.88" stroke-miterlimit="4" stroke-linecap="round" stroke-linejoin="round" d="M8 8l16 16"></path>
</symbol>
<symbol id="icon-chevron" viewBox="0 0 32 32">
<path stroke-linejoin="round" stroke-linecap="round" stroke-miterlimit="4" stroke-width="3.5556" d="M8 12l8 8 8-8"></path>
</symbol>
<symbol id="icon-search" viewBox="0 0 32 32">
<path d="M28.947 27.054l-4.947-4.907c1.92-2.394 2.85-5.433 2.598-8.492s-1.666-5.905-3.951-7.953c-2.285-2.048-5.269-3.143-8.337-3.059s-5.987 1.34-8.157 3.51c-2.17 2.17-3.426 5.089-3.51 8.157s1.011 6.051 3.059 8.337c2.048 2.285 4.894 3.7 7.953 3.951s6.097-0.678 8.492-2.598l4.907 4.907c0.124 0.125 0.271 0.224 0.434 0.292s0.337 0.102 0.513 0.102 0.35-0.035 0.513-0.102c0.163-0.068 0.31-0.167 0.434-0.292 0.24-0.249 0.375-0.581 0.375-0.927s-0.134-0.678-0.375-0.927zM14.667 24.001c-1.846 0-3.65-0.547-5.185-1.573s-2.731-2.483-3.438-4.189c-0.706-1.705-0.891-3.582-0.531-5.393s1.249-3.474 2.554-4.779c1.305-1.305 2.968-2.194 4.779-2.554s3.687-0.175 5.393 0.531c1.705 0.706 3.163 1.903 4.189 3.438s1.573 3.339 1.573 5.185c0 2.475-0.983 4.849-2.734 6.6s-4.124 2.734-6.6 2.734z"></path>
</symbol>

</defs>
</svg>
